<!-- <?xml version="1.0" encoding="UTF-8" standalone="no"?>
<!DOCTYPE svg PUBLIC "-//W3C//DTD SVG 1.1//EN" "http://www.w3.org/Graphics/SVG/1.1/DTD/svg11.dtd">
<svg version="1.1" xmlns="http://www.w3.org/2000/svg" xmlns:xlink="http://www.w3.org/1999/xlink" preserveAspectRatio="xMidYMid meet" viewBox="344.5639097744361 330.27819548872174 111.73684210526318 91.21804511278197" width="53.87" height="43.61"><defs><path d="M453.3 331.28L453.3 359.85L388.64 418.5L388.64 388.42L453.3 331.28Z" id="aFZf6T5ED"></path><linearGradient id="gradientb2ThqnP5Op" gradientUnits="userSpaceOnUse" x1="420.97" y1="331.28" x2="420.97" y2="418.5"><stop style="stop-color: #06b6d4;stop-opacity: 1" offset="0%"></stop><stop style="stop-color: #67e8f9;stop-opacity: 1" offset="100%"></stop></linearGradient><path d="M410.23 331.28L410.23 359.85L345.56 418.5L345.56 388.42L410.23 331.28Z" id="a9fehgwfM"></path><linearGradient id="gradientk1wNV9Ostb" gradientUnits="userSpaceOnUse" x1="377.89" y1="331.28" x2="377.89" y2="418.5"><stop style="stop-color: #06b6d4;stop-opacity: 1" offset="0%"></stop><stop style="stop-color: #67e8f9;stop-opacity: 1" offset="100%"></stop></linearGradient></defs><g><g><use xlink:href="#aFZf6T5ED" opacity="1" fill="url(#gradientb2ThqnP5Op)"></use></g><g><use xlink:href="#a9fehgwfM" opacity="1" fill="url(#gradientk1wNV9Ostb)"></use></g></g></svg> -->


<svg width="249" height="31" viewBox="0 0 249 31" fill="none" xmlns="http://www.w3.org/2000/svg">
<path d="M10.96 18.96L14.68 8.48H14.76L18.36 18.96H10.96ZM11.56 1.44L0.76 30H7.08L9.32 23.64H20L22.16 30H28.68L18 1.44H11.56ZM55.3828 19.2V1.44H49.1028V19.2C49.1028 21.3333 48.6761 22.9067 47.8228 23.92C46.9695 24.9067 45.4228 25.4 43.1828 25.4C41.9028 25.4 40.8761 25.2267 40.1028 24.88C39.3561 24.5067 38.7695 24.04 38.3428 23.48C37.9161 22.8933 37.6361 22.2267 37.5028 21.48C37.3695 20.7333 37.3028 19.9733 37.3028 19.2V1.44H31.0228V19.2C31.0228 23.0933 32.0761 25.9733 34.1828 27.84C36.3161 29.7067 39.3161 30.64 43.1828 30.64C46.9961 30.64 49.9828 29.7067 52.1428 27.84C54.3028 25.9467 55.3828 23.0667 55.3828 19.2ZM67.1113 6.72V30H73.3913V6.72H81.9513V1.44H58.5513V6.72H67.1113ZM85.2444 1.44V30H91.5244V17.68H103.084V30H109.364V1.44H103.084V12.4H91.5244V1.44H85.2444Z" fill="black"/>
<path d="M114.893 1.44V30H120.773V10.88H120.853L132.733 30H139.013V1.44H133.133V20.6H133.053L121.133 1.44H114.893Z" fill="#515050"/>
<path d="M150.861 6.72V30H157.141V6.72H165.701V1.44H142.301V6.72H150.861ZM168.994 1.44V30H190.674V24.72H175.274V17.72H189.114V12.84H175.274V6.72H190.354V1.44H168.994ZM213.972 11.04H220.052C219.865 9.38667 219.412 7.92 218.692 6.64C217.972 5.36 217.052 4.29333 215.932 3.44C214.839 2.56 213.585 1.89333 212.172 1.44C210.785 0.986666 209.305 0.76 207.732 0.76C205.545 0.76 203.572 1.14667 201.812 1.92C200.079 2.69333 198.612 3.76 197.412 5.12C196.212 6.48 195.292 8.08 194.652 9.92C194.012 11.7333 193.692 13.7067 193.692 15.84C193.692 17.92 194.012 19.8667 194.652 21.68C195.292 23.4667 196.212 25.0267 197.412 26.36C198.612 27.6933 200.079 28.7467 201.812 29.52C203.572 30.2667 205.545 30.64 207.732 30.64C209.492 30.64 211.105 30.3733 212.572 29.84C214.039 29.3067 215.319 28.5333 216.412 27.52C217.505 26.5067 218.385 25.28 219.052 23.84C219.719 22.4 220.132 20.7867 220.292 19H214.212C213.972 20.92 213.305 22.4667 212.212 23.64C211.145 24.8133 209.652 25.4 207.732 25.4C206.319 25.4 205.119 25.1333 204.132 24.6C203.145 24.04 202.345 23.3067 201.732 22.4C201.119 21.4933 200.665 20.48 200.372 19.36C200.105 18.2133 199.972 17.04 199.972 15.84C199.972 14.5867 200.105 13.3733 200.372 12.2C200.665 11.0267 201.119 9.98667 201.732 9.08C202.345 8.14667 203.145 7.41333 204.132 6.88C205.119 6.32 206.319 6.04 207.732 6.04C208.505 6.04 209.239 6.17333 209.932 6.44C210.652 6.68 211.292 7.02667 211.852 7.48C212.412 7.93333 212.879 8.46667 213.252 9.08C213.625 9.66667 213.865 10.32 213.972 11.04ZM224.58 1.44V30H230.86V17.68H242.42V30H248.7V1.44H242.42V12.4H230.86V1.44H224.58Z" fill="#0ACB9E"/>
</svg>
